<svg xmlns="http://www.w3.org/2000/svg" width="1200" height="630" viewBox="0 0 1200 630" role="img" aria-label="Axe 3D Website Builder">
  <defs>
    <linearGradient id="bg" x1="0" y1="0" x2="1" y2="1">
      <stop offset="0" stop-color="#08090b"/>
      <stop offset="1" stop-color="#151923"/>
    </linearGradient>
    <linearGradient id="cube-a" x1="0" y1="0" x2="1" y2="1">
      <stop offset="0" stop-color="#8fffe1"/>
      <stop offset="1" stop-color="#24d6a3"/>
    </linearGradient>
  </defs>
  <rect width="1200" height="630" fill="url(#bg)"/>
  <g opacity=".28" stroke="#3f4654" stroke-width="1">
    <path d="M0 454h1200M0 394h1200M0 334h1200M0 274h1200"/>
    <path d="M174 630 524 170M314 630 634 170M454 630 744 170M594 630 854 170M734 630 964 170M874 630 1074 170"/>
    <path d="M1026 630 676 170M886 630 566 170M746 630 456 170M606 630 346 170M466 630 236 170M326 630 126 170"/>
  </g>
  <g transform="translate(760 178)">
    <path d="M42 86 155 24l117 62-116 65L42 86Z" fill="#b8fff0"/>
    <path d="M42 86v128l114 68V151L42 86Z" fill="#35b98f"/>
    <path d="M272 86v126l-116 70V151l116-65Z" fill="#24d6a3"/>
  </g>
  <circle cx="944" cy="396" r="76" fill="#f3c969"/>
  <circle cx="944" cy="396" r="76" fill="url(#cube-a)" opacity=".18"/>
  <g transform="translate(96 102)">
    <rect width="82" height="82" rx="18" fill="#10201b" stroke="#2d8f74"/>
    <path d="M22 58 39.4 19h8.8L65 58H54.8l-2.8-7.2H35.3L32.5 58H22Zm16.2-14.8h11l-5.4-14.7-5.6 14.7Z" fill="#6ee7b7"/>
  </g>
  <text x="96" y="272" fill="#f8fafc" font-family="Inter, Arial, sans-serif" font-size="92" font-weight="800">Axe</text>
  <text x="96" y="346" fill="#c9d2df" font-family="Inter, Arial, sans-serif" font-size="42" font-weight="500">3D WebGL Website Builder</text>
  <text x="100" y="416" fill="#8d99aa" font-family="Inter, Arial, sans-serif" font-size="28">Visual scene editing, UI blocks, animation timelines, and save/load workflows.</text>
  <rect x="96" y="474" width="224" height="54" rx="10" fill="#6ee7b7"/>
  <text x="126" y="510" fill="#06110e" font-family="Inter, Arial, sans-serif" font-size="22" font-weight="700">Build in 3D</text>
</svg>
